<?xml version="1.0" standalone="no"?>
<!DOCTYPE svg PUBLIC "-//W3C//DTD SVG 20010904//EN"
 "http://www.w3.org/TR/2001/REC-SVG-20010904/DTD/svg10.dtd">
<svg version="1.0" xmlns="http://www.w3.org/2000/svg"
 width="1696.000000pt" height="848.000000pt" viewBox="0 0 1696.000000 848.000000"
 preserveAspectRatio="xMidYMid meet">

<g transform="translate(0.000000,848.000000) scale(0.100000,-0.100000)"
fill="#000000" stroke="none">
<path d="M0 4240 l0 -4240 8480 0 8480 0 0 4240 0 4240 -76 -2 c-41 -1 -77 -5
-80 -10 -7 -11 -64 -10 -64 2 0 6 -2856 10 -8370 10 l-8370 0 0 -4240z m5920
985 c81 -19 108 -29 195 -73 64 -32 112 -62 141 -87 6 -5 28 -23 48 -39 20
-15 36 -32 36 -36 0 -4 -82 -7 -182 -5 -159 2 -189 6 -228 23 -25 11 -84 26
-131 32 -199 27 -393 -39 -549 -187 -148 -139 -209 -286 -210 -505 0 -125 -4
-148 -26 -148 -8 0 -14 -7 -14 -16 0 -14 -3 -14 -15 -4 -8 7 -15 18 -15 25 0
6 -10 20 -22 31 l-21 19 18 -30 17 -30 -21 25 c-105 126 -89 376 40 592 126
210 366 378 599 418 80 14 271 11 340 -5z m586 -423 c12 -8 67 -112 78 -149
l7 -23 -498 0 -498 0 -50 -24 c-61 -29 -117 -86 -144 -146 -26 -57 -29 -186
-6 -231 9 -16 13 -35 9 -41 -4 -6 -3 -8 3 -5 13 8 46 -50 37 -65 -5 -7 -2 -9
7 -6 10 4 14 -2 16 -19 1 -24 -1 -25 -35 -20 -36 6 -36 6 -12 -8 30 -17 24
-19 -18 -4 -18 6 -29 16 -25 22 4 6 -2 8 -15 5 -12 -4 -20 -2 -17 2 3 5 -5 10
-17 12 -15 2 -22 9 -20 20 2 12 -2 16 -12 12 -18 -7 -71 60 -60 77 5 8 3 9 -6
4 -10 -6 -12 -4 -7 8 3 9 1 17 -6 20 -6 2 -13 33 -15 73 -10 174 88 348 245
434 106 58 117 59 603 59 245 0 450 -3 456 -7z m4474 -581 c0 -432 2 -491 16
-505 11 -12 35 -16 85 -16 l69 0 0 -74 0 -73 -37 -7 c-65 -10 -149 -7 -185 9
-45 18 -94 74 -107 122 -7 24 -11 219 -11 536 l0 497 85 0 85 0 0 -489z
m-2296 340 c47 -17 156 -71 174 -86 2 -2 -12 -24 -32 -49 -19 -25 -37 -55 -41
-66 -4 -12 -10 -20 -13 -18 -4 2 -43 21 -86 43 -77 38 -84 40 -175 40 -106 0
-145 -13 -176 -61 -10 -15 -18 -46 -18 -68 0 -64 44 -95 201 -141 233 -68 290
-99 340 -183 24 -42 27 -57 27 -138 0 -83 -2 -94 -30 -139 -82 -132 -275 -194
-470 -150 -75 16 -227 86 -266 121 -18 16 -16 19 28 78 26 33 47 62 48 64 1 1
27 -13 56 -33 93 -61 152 -79 259 -80 110 0 160 18 191 69 38 62 16 130 -54
170 -23 13 -105 43 -182 66 -211 62 -275 106 -310 209 -55 162 46 317 240 368
70 18 214 10 289 -16z m885 -172 c53 -12 128 -49 169 -84 l32 -26 -42 -57
c-23 -31 -44 -59 -45 -61 -2 -2 -23 10 -48 28 -60 43 -116 61 -189 61 -107 -1
-190 -54 -237 -155 -80 -168 13 -366 192 -404 81 -18 159 5 254 74 19 13 23
10 69 -41 l48 -55 -23 -26 c-30 -31 -128 -82 -194 -99 -145 -39 -306 6 -416
115 -133 133 -164 335 -79 508 91 185 289 272 509 222z m842 -9 c82 -25 130
-66 166 -138 l28 -57 0 -315 0 -315 -75 0 -75 0 -3 38 -3 38 -33 -24 c-105
-80 -275 -93 -403 -30 -64 32 -106 78 -128 142 -49 145 23 284 178 343 56 21
78 23 224 23 l163 0 -6 35 c-18 99 -81 136 -217 128 -75 -5 -117 -17 -224 -64
-10 -5 -73 100 -73 121 0 10 122 64 180 79 82 22 225 20 301 -4z m1404 -1
c165 -62 265 -208 265 -389 l0 -69 -324 -3 c-178 -2 -328 -6 -332 -10 -15 -15
18 -91 59 -136 97 -105 263 -120 402 -36 32 19 59 33 59 32 1 -2 21 -27 44
-56 l44 -52 -24 -20 c-41 -36 -161 -90 -223 -101 -291 -54 -539 142 -539 426
0 101 22 176 77 257 47 71 137 138 215 162 73 23 210 20 277 -5z m-5911 2 c3
-4 27 -11 53 -15 27 -3 55 -11 63 -16 11 -8 7 -9 -15 -5 -24 5 -22 3 10 -11
70 -28 84 -37 78 -47 -4 -6 0 -8 10 -4 12 4 14 2 10 -10 -5 -12 -2 -15 10 -10
9 3 17 2 17 -3 0 -6 -6 -10 -12 -10 -10 0 -10 -2 0 -8 7 -5 10 -16 6 -25 -3
-9 -11 -14 -16 -11 -6 4 -8 -9 -6 -32 3 -39 -16 -59 -32 -33 -12 19 -49 19
-43 0 3 -9 -6 -4 -20 11 -15 14 -36 29 -47 33 -12 4 -19 9 -17 12 3 2 15 0 26
-7 12 -6 21 -7 21 -2 0 15 -52 34 -60 22 -4 -7 -20 -5 -51 4 -48 16 -260 26
-252 12 3 -5 0 -7 -8 -4 -8 3 -14 9 -14 15 0 5 -8 17 -17 27 -24 23 -23 47 3
80 15 19 27 25 43 21 11 -2 15 -2 8 1 -6 3 -10 10 -6 15 7 12 251 12 258 0z
m417 -41 c6 0 8 -4 5 -9 -4 -5 3 -7 14 -4 11 3 20 1 20 -5 0 -5 12 -13 27 -16
28 -8 113 -62 113 -73 0 -4 -5 -2 -12 5 -7 7 -16 12 -20 12 -4 0 1 -9 12 -20
21 -21 28 -46 9 -34 -8 4 -8 0 0 -15 13 -23 26 -27 36 -10 4 5 -1 19 -11 30
-9 10 -12 19 -6 19 21 0 36 -45 34 -98 -2 -30 1 -51 6 -48 5 3 9 -1 9 -7 0
-16 -44 -21 -53 -6 -4 6 -1 15 5 19 10 5 9 11 -2 21 -7 8 -20 26 -27 39 l-13
25 -13 -30 c-8 -19 -13 -24 -17 -15 -2 8 -3 3 -1 -12 2 -16 -1 -28 -6 -28 -10
0 -15 27 -12 63 1 10 -2 16 -7 13 -11 -7 -24 41 -15 56 5 8 1 9 -10 5 -14 -6
-16 -3 -11 14 5 15 4 19 -4 15 -6 -4 -11 -3 -11 2 0 4 -10 19 -22 33 -63 71
-64 73 -45 66 10 -4 23 -7 28 -7z m-1267 -157 c-5 -20 -4 -24 6 -18 9 5 11 4
6 -3 -4 -7 -3 -12 1 -12 5 0 9 -9 9 -19 0 -11 -4 -17 -8 -15 -4 3 -8 12 -8 20
0 8 -5 14 -11 14 -5 0 -7 -4 -4 -10 9 -15 -11 -12 -22 3 -12 16 -11 27 7 54
18 28 32 20 24 -14z m693 30 c-20 -2 -52 -2 -70 0 -17 2 0 4 38 4 39 0 53 -2
32 -4z m452 -83 c-1 -24 -1 -24 -14 5 l-14 30 -1 -30 c0 -22 -3 -26 -9 -15 -6
8 -7 18 -5 22 3 4 1 8 -5 8 -12 0 -2 32 13 42 14 9 35 -30 35 -62z m11 35 c0
-5 -5 -3 -10 5 -5 8 -10 20 -10 25 0 6 5 3 10 -5 5 -8 10 -19 10 -25z m310 15
c0 -5 -4 -10 -10 -10 -5 0 -10 5 -10 10 0 6 5 10 10 10 6 0 10 -4 10 -10z
m-452 -54 c-1 -14 -5 -23 -9 -20 -7 4 0 44 7 44 2 0 3 -11 2 -24z m412 -3 c0
-5 -8 -17 -17 -28 -14 -18 -15 -18 -9 -2 3 10 6 23 6 28 0 5 5 9 10 9 6 0 10
-3 10 -7z m-290 -33 c0 -5 -4 -10 -10 -10 -5 0 -10 5 -10 10 0 6 5 10 10 10 6
0 10 -4 10 -10z m387 -37 c-3 -10 -5 -2 -5 17 0 19 2 27 5 18 2 -10 2 -26 0
-35z m-330 -20 c-3 -10 -5 -4 -5 12 0 17 2 24 5 18 2 -7 2 -21 0 -30z m-722
17 c-3 -5 -16 -10 -28 -9 -20 1 -20 2 3 9 14 4 26 8 28 9 2 1 0 -3 -3 -9z
m935 -35 c0 -8 -7 -15 -15 -15 -16 0 -20 12 -8 23 11 12 23 8 23 -8z m1230
-32 c0 -27 -4 -54 -8 -60 -6 -9 -94 -13 -350 -15 l-342 -3 0 63 0 62 350 0
350 0 0 -47z m-1443 -25 c-3 -8 -6 -5 -6 6 -1 11 2 17 5 13 3 -3 4 -12 1 -19z
m190 -50 c-3 -8 -6 -5 -6 6 -1 11 2 17 5 13 3 -3 4 -12 1 -19z"/>
<path d="M10157 3940 c-77 -20 -117 -66 -117 -135 0 -48 31 -90 76 -105 22 -8
70 -11 120 -8 73 4 90 8 127 34 62 44 87 87 87 150 0 29 -4 55 -9 58 -17 11
-246 15 -284 6z"/>
<path d="M11588 4248 c-50 -13 -121 -77 -147 -133 -11 -24 -21 -49 -21 -55 0
-6 87 -10 245 -10 276 0 262 -4 226 76 -23 49 -88 107 -140 122 -45 14 -111
14 -163 0z"/>
<path d="M5723 4373 c26 -2 68 -2 95 0 26 2 4 3 -48 3 -52 0 -74 -1 -47 -3z"/>
<path d="M5948 4353 c7 -3 16 -2 19 1 4 3 -2 6 -13 5 -11 0 -14 -3 -6 -6z"/>
<path d="M5908 4223 c7 -3 16 -2 19 1 4 3 -2 6 -13 5 -11 0 -14 -3 -6 -6z"/>
<path d="M5985 4220 c3 -5 8 -10 11 -10 2 0 4 5 4 10 0 6 -5 10 -11 10 -5 0
-7 -4 -4 -10z"/>
<path d="M6430 4260 c0 -5 5 -10 10 -10 6 0 10 5 10 10 0 6 -4 10 -10 10 -5 0
-10 -4 -10 -10z"/>
</g>
</svg>
