<?xml version="1.0" encoding="iso-8859-1"?>
<!-- Uploaded to: SVG Repo, www.svgrepo.com, Generator: SVG Repo Mixer Tools -->
<svg height="800px" width="800px" version="1.1" id="Layer_1" xmlns="http://www.w3.org/2000/svg" xmlns:xlink="http://www.w3.org/1999/xlink" 
	 viewBox="0 0 451.277 451.277" xml:space="preserve">
<circle style="fill:#EA8953;" cx="225.638" cy="225.638" r="225.638"/>
<path style="opacity:0.1;enable-background:new    ;" d="M447.173,268.534l-134.23-134.23l-0.94-0.94
	c-21.532-22.754-52.277-36.998-86.361-36.998c-65.065,0-118,51.901-118,115.697v33.379c-6.911,5.5-11.283,14.009-11.283,23.553
	c0,10.343,5.124,19.416,12.975,24.822v0.047l154.203,154.203C356.111,432.401,429.487,360.403,447.173,268.534z"/>
<path style="fill:#3A556A;" d="M343.652,273.357h-14.104v-61.299c0-55.961-46.615-101.49-103.911-101.49
	s-103.909,45.528-103.909,101.49v61.299h-14.104v-61.299c0-63.798,52.939-115.702,118.012-115.702
	c65.073,0,118.014,51.904,118.014,115.702V273.357z"/>
<path style="fill:#EBF0F3;" d="M280.576,240.401v57.207c0,12.35,9.936,22.363,22.192,22.363V218.038
	C290.512,218.038,280.576,228.05,280.576,240.401z"/>
<path style="fill:#E1E6E9;" d="M302.768,218.038L302.768,218.038V319.97l0,0c12.256,0,22.192-10.012,22.192-22.363v-57.207
	C324.959,228.05,315.024,218.038,302.768,218.038z"/>
<path style="fill:#64798A;" d="M324.959,238.811v60.386c16.548,0,29.962-13.518,29.962-30.193S341.507,238.811,324.959,238.811z"/>
<path style="fill:#EBF0F3;" d="M170.701,240.401v57.207c0,12.35-9.936,22.363-22.192,22.363V218.038
	C160.765,218.038,170.701,228.05,170.701,240.401z"/>
<path style="fill:#E1E6E9;" d="M148.509,218.038L148.509,218.038V319.97l0,0c-12.256,0-22.192-10.012-22.192-22.363v-57.207
	C126.318,228.05,136.253,218.038,148.509,218.038z"/>
<g>
	<path style="fill:#64798A;" d="M126.318,238.811v60.386c-16.548,0-29.962-13.518-29.962-30.193S109.77,238.811,126.318,238.811z"/>
	<path style="fill:#64798A;" d="M237.275,349.503l-0.119-4.738c58.708-1.499,87.686-49.974,87.971-50.465l4.054,2.406
		C328.879,297.215,298.56,347.939,237.275,349.503z"/>
</g>
<g>
	<path style="fill:#3A556A;" d="M345.022,279.144c2.201-4.569,0.31-10.07-4.224-12.288c-4.534-2.219-9.994-0.313-12.194,4.256
		c-1.618,3.358-1.01,7.21,1.218,9.902l-7.144,14.829l6.726,3.29l7.144-14.829C340.024,284.403,343.404,282.502,345.022,279.144z"/>
	<ellipse style="fill:#3A556A;" cx="233.472" cy="346.624" rx="12.093" ry="8.31"/>
</g>
</svg>