<?xml version="1.0" encoding="UTF-8"?>
<svg version="1.1" xmlns="http://www.w3.org/2000/svg" width="154" height="148">
<path d="M0 0 C50.82 0 101.64 0 154 0 C154 48.84 154 97.68 154 148 C103.18 148 52.36 148 0 148 C0 99.16 0 50.32 0 0 Z " fill="#FDFDFD" transform="translate(0,0)"/>
<path d="M0 0 C6.93 0 13.86 0 21 0 C21.99 1.98 22.98 3.96 24 6 C26.49807796 8.6765121 27.74884968 8.97260178 31.4375 9.375 C35.28727367 8.96976067 37.04191593 8.46507006 40 6 C40.99 4.02 41.98 2.04 43 0 C49.93 0 56.86 0 64 0 C60.0785569 4.57501695 56.20779837 8.93250354 51.9453125 13.15234375 C51.12569534 13.96983849 51.12569534 13.96983849 50.28952026 14.80384827 C48.57037942 16.51746118 46.84776796 18.22753444 45.125 19.9375 C43.94768362 21.10979204 42.77059826 22.28231614 41.59375 23.45507812 C38.73182511 26.30606982 35.86678543 29.15389615 33 32 C29.84315465 30.48352484 27.39448603 28.81147667 24.75 26.5 C24.04359375 25.8915625 23.3371875 25.283125 22.609375 24.65625 C21 23 21 23 21 21 C20.34 21 19.68 21 19 21 C19 20.34 19 19.68 19 19 C18.34 19 17.68 19 17 19 C17 18.34 17 17.68 17 17 C16.34 17 15.68 17 15 17 C13.7528148 15.52307016 12.50964765 14.04202596 11.30859375 12.52734375 C9.74490246 10.70225929 7.92388382 9.42509913 6 8 C6 7.34 6 6.68 6 6 C5.34 6 4.68 6 4 6 C1.875 4.125 1.875 4.125 0 2 C0 1.34 0 0.68 0 0 Z " fill="#D12143" transform="translate(57,61)"/>
<path d="M0 0 C6.47243666 5.28879802 12.31646398 11.16418357 18.20922852 17.07885742 C19.95409718 18.82914876 21.70432783 20.57395326 23.45507812 22.31835938 C24.56282133 23.42676228 25.6702549 24.53547476 26.77734375 25.64453125 C27.30222885 26.16739212 27.82711395 26.69025299 28.36790466 27.22895813 C32 30.885009 32 30.885009 32 32 C28.75068073 32.17455021 25.50256552 32.28091753 22.25 32.375 C21.32960937 32.42527344 20.40921875 32.47554687 19.4609375 32.52734375 C16.84709666 32.58416638 14.55400191 32.56742963 12 32 C9.546875 29.1015625 9.546875 29.1015625 8 26 C3.99298306 23.32865537 0.71123704 23.17346719 -4 24 C-7.28175318 26.52968474 -8.69243777 28.07731331 -10 32 C-16.93 32 -23.86 32 -31 32 C-27.0785569 27.42498305 -23.20779837 23.06749646 -18.9453125 18.84765625 C-18.39890106 18.30265976 -17.85248962 17.75766327 -17.28952026 17.19615173 C-15.57037942 15.48253882 -13.84776796 13.77246556 -12.125 12.0625 C-10.94768362 10.89020796 -9.77059826 9.71768386 -8.59375 8.54492188 C-5.73182511 5.69393018 -2.86678543 2.84610385 0 0 Z " fill="#FECA0D" transform="translate(88,26)"/>
<path d="M0 0 C2.60271181 30.5197991 2.60271181 30.5197991 -3.26953125 38.53125 C-6.69265154 42.2220957 -10.53408563 45.62429669 -15 48 C-15.66 48 -16.32 48 -17 48 C-19.77906601 18.62740998 -19.77906601 18.62740998 -13.47265625 10.3125 C-3.78595753 0 -3.78595753 0 0 0 Z " fill="#642D8B" transform="translate(80,90)"/>
<path d="M0 0 C10.56 0 21.12 0 32 0 C32 10.56 32 21.12 32 32 C27.43593497 28.08794426 23.07192764 24.22148312 18.84765625 19.98046875 C18.30265976 19.43642899 17.75766327 18.89238922 17.19615173 18.3318634 C16.05979763 17.19618322 14.92467879 16.05926575 13.79077148 14.92114258 C12.04590282 13.17085124 10.29567217 11.42604674 8.54492188 9.68164062 C7.43717867 8.57323772 6.3297451 7.46452524 5.22265625 6.35546875 C4.4353286 5.57117744 4.4353286 5.57117744 3.63209534 4.77104187 C0 1.114991 0 1.114991 0 0 Z " fill="#0DAE47" transform="translate(92,24)"/>
<path d="M0 0 C5.66129431 4.69766975 10.85228904 9.74723372 16 15 C14.34136495 19.32504836 11.128959 22.09418825 7.875 25.25 C7.31167969 25.80429688 6.74835938 26.35859375 6.16796875 26.9296875 C4.78313972 28.29104485 3.39216796 29.64614859 2 31 C-0.93230193 29.67879172 -2.98664899 28.25361803 -5.234375 25.9609375 C-5.80800781 25.38085938 -6.38164063 24.80078125 -6.97265625 24.203125 C-7.55917969 23.59984375 -8.14570312 22.9965625 -8.75 22.375 C-9.35199219 21.76398438 -9.95398437 21.15296875 -10.57421875 20.5234375 C-12.05405305 19.02011376 -13.52764676 17.51065144 -15 16 C-10.30233025 10.33870569 -5.25276628 5.14771096 0 0 Z " fill="#F3811F" transform="translate(61,71)"/>
<path d="M0 0 C5.64426769 4.68354127 11.0058046 9.6207646 16 15 C16 15.33 16 15.66 16 16 C5.77 16 -4.46 16 -15 16 C-11.40777239 11.80906779 -8.01936764 7.89786207 -4.125 4.0625 C-3.34382813 3.29035156 -2.56265625 2.51820312 -1.7578125 1.72265625 C-1.17773438 1.15417969 -0.59765625 0.58570312 0 0 Z " fill="#2B3B8F" transform="translate(25,71)"/>
<path d="M0 0 C9.57 0 19.14 0 29 0 C27.00866319 3.98267363 24.70318077 6.69786709 21.625 9.8125 C20.90183594 10.5849707 20.90183594 10.5849707 20.1640625 11.37304688 C16.60579481 14.9844952 16.60579481 14.9844952 13.86328125 15.0546875 C11.57534485 13.75962916 10.23598342 12.34155034 8.5625 10.3125 C8.00691406 9.64863281 7.45132813 8.98476562 6.87890625 8.30078125 C6.25886719 7.54152344 5.63882813 6.78226562 5 6 C3.35 4.02 1.7 2.04 0 0 Z " fill="#2AA6DE" transform="translate(29,69)"/>
<path d="M0 0 C6.93 0 13.86 0 21 0 C19 2 19 2 15.15625 2.08984375 C12.80977919 2.02745902 10.46616114 1.93602754 8.12109375 1.83398438 C6.08060987 1.78323478 4.03769898 1.88196256 2 2 C1.01 3.485 1.01 3.485 0 5 C-0.66 4.67 -1.32 4.34 -2 4 C-1.34 2.68 -0.68 1.36 0 0 Z " fill="#D43554" transform="translate(100,61)"/>
</svg>
