<?xml version="1.0" encoding="UTF-8"?>
<svg version="1.1" xmlns="http://www.w3.org/2000/svg" width="180" height="180">
<path d="M0 0 C6.27 0 12.54 0 19 0 C19.99 1.98 20.98 3.96 22 6 C26.052373 7.9114967 28.02516968 8.31268142 32.3125 6.9375 C35.52297799 4.98781226 35.52297799 4.98781226 37 0 C43.27 0 49.54 0 56 0 C53.95538352 4.08923295 51.53996717 6.7169902 48.3359375 9.859375 C47.78386627 10.40861633 47.23179504 10.95785767 46.66299438 11.52374268 C44.90498185 13.27059293 43.1401311 15.01034601 41.375 16.75 C40.1792292 17.93573591 38.98391135 19.1219288 37.7890625 20.30859375 C34.86459747 23.21105085 31.93398126 26.1071641 29 29 C24.92362878 27.37724852 22.17387958 24.46284177 19.140625 21.40625 C18.59138367 20.85892212 18.04214233 20.31159424 17.47625732 19.74768066 C16.32074141 18.5935222 15.16773315 17.43684833 14.01708984 16.27783203 C12.249265 14.49926054 10.4709787 12.73165237 8.69140625 10.96484375 C7.56967029 9.84178692 6.44855449 8.71811024 5.328125 7.59375 C4.79382874 7.0635022 4.25953247 6.53325439 3.70904541 5.98693848 C0 2.22993854 0 2.22993854 0 0 Z " fill="#D01D40" transform="translate(80,58)"/>
<path d="M0 0 C3.89043633 1.57795915 6.47695368 4.23554381 9.3515625 7.19140625 C10.10172134 7.94936745 10.10172134 7.94936745 10.86703491 8.72264099 C12.45786943 10.33123084 14.04183084 11.94636819 15.625 13.5625 C17.21617776 15.18130238 18.80879701 16.79861821 20.40438843 18.41307068 C21.39547098 19.41640427 22.38386808 20.42239908 23.36929321 21.43128967 C25.92858681 24.05171465 25.92858681 24.05171465 29 26 C29 26.66 29 27.32 29 28 C22.73 28 16.46 28 10 28 C9.34 26.02 8.68 24.04 8 22 C5.32356043 21.10785348 3.74615622 20.86459789 1 20.875 C0.319375 20.87242188 -0.36125 20.86984375 -1.0625 20.8671875 C-3.21874781 20.93368874 -3.21874781 20.93368874 -6 22 C-6.66 23.98 -7.32 25.96 -8 28 C-14.27 28 -20.54 28 -27 28 C-27 27.34 -27 26.68 -27 26 C-25.6015625 24.62280273 -25.6015625 24.62280273 -23.625 22.99609375 C-18.47566603 18.61757057 -13.75318068 13.86313947 -9 9.0625 C-8.12988281 8.18787109 -7.25976562 7.31324219 -6.36328125 6.41210938 C-4.23986451 4.27702551 -2.11883622 2.13962795 0 0 Z " fill="#FECD0D" transform="translate(107,29)"/>
<path d="M0 0 C2.60216478 26.49937853 2.60216478 26.49937853 -3.26953125 34.265625 C-6.73408043 37.97404322 -10.57497007 41.47093038 -15 44 C-15.66 44 -16.32 44 -17 44 C-19.60216478 17.50062147 -19.60216478 17.50062147 -13.73046875 9.734375 C-4.63623532 0 -4.63623532 0 0 0 Z " fill="#9800CC" transform="translate(102,82)"/>
<path d="M0 0 C2.475 0.495 2.475 0.495 5 1 C5 8.59 5 16.18 5 24 C3.35 24.33 1.7 24.66 0 25 C-0.804375 25.2475 -1.60875 25.495 -2.4375 25.75 C-5.97495429 26.09511749 -7.9866907 24.75192401 -11 23 C-11 22.34 -11 21.68 -11 21 C-12.051875 21.9590625 -12.051875 21.9590625 -13.125 22.9375 C-16.31938309 25.22912265 -18.08795445 25.91849905 -22 26 C-24.87872577 24.6260627 -26.74989437 23.25010563 -29 21 C-29.87799405 16.29580032 -29.62378518 12.92622648 -26.9375 8.9375 C-23.2853074 6.52860701 -21.29702259 6.36340406 -17 7 C-15.0625 8.1875 -15.0625 8.1875 -14 10 C-13.625 12.5 -13.625 12.5 -14 15 C-15.88634082 17.54656011 -18.13904359 18.7175023 -21 20 C-19.8553125 19.5359375 -19.8553125 19.5359375 -18.6875 19.0625 C-16.81210323 18.32106407 -14.91315348 17.63771783 -13 17 C-12.690625 15.88625 -12.38125 14.7725 -12.0625 13.625 C-11 10 -11 10 -9.25 8.0625 C-6.37933889 6.70691003 -4.13566218 6.78620485 -1 7 C-1.020625 6.030625 -1.04125 5.06125 -1.0625 4.0625 C-1 1 -1 1 0 0 Z M-23 12 C-23.33 12.66 -23.66 13.32 -24 14 C-22.35 13.67 -20.7 13.34 -19 13 C-20.32 12.67 -21.64 12.34 -23 12 Z M-6 12 C-7.35618499 13.12534105 -7.35618499 13.12534105 -7.0625 16.0625 C-7.041875 17.031875 -7.02125 18.00125 -7 19 C-5.34385343 19.38218767 -3.67542976 19.71395102 -2 20 C-0.64381501 18.87465895 -0.64381501 18.87465895 -0.9375 15.9375 C-0.958125 14.968125 -0.97875 13.99875 -1 13 C-2.65614657 12.61781233 -4.32457024 12.28604898 -6 12 Z " fill="#545454" transform="translate(140,131)"/>
<path d="M0 0 C9.9 0 19.8 0 30 0 C30.495 15.345 30.495 15.345 31 31 C28.00306862 30.00102287 26.97290587 29.34869747 25 27 C25 26.34 25 25.68 25 25 C24.34 25 23.68 25 23 25 C23 24.34 23 23.68 23 23 C22.34 23 21.68 23 21 23 C19.375 21.625 19.375 21.625 18 20 C18 19.34 18 18.68 18 18 C17.34 18 16.68 18 16 18 C16 17.34 16 16.68 16 16 C15.34 16 14.68 16 14 16 C12.34375 14.28515625 12.34375 14.28515625 10.5 12.0625 C8.11073001 9.07954821 8.11073001 9.07954821 5 7 C5 6.34 5 5.68 5 5 C4.34 5 3.68 5 3 5 C3 4.34 3 3.68 3 3 C2.01 2.67 1.02 2.34 0 2 C0 1.34 0 0.68 0 0 Z " fill="#16A945" transform="translate(109,26)"/>
<path d="M0 0 C2.77490237 1.94673383 3.22704628 3.84914216 4.265625 7.0390625 C4.60078125 8.04195312 4.9359375 9.04484375 5.28125 10.078125 C5.52359375 10.84898437 5.7659375 11.61984375 6.015625 12.4140625 C6.19738281 11.72699219 6.37914063 11.03992188 6.56640625 10.33203125 C6.81777344 9.43097656 7.06914063 8.52992188 7.328125 7.6015625 C7.57175781 6.70824219 7.81539062 5.81492188 8.06640625 4.89453125 C9.05618892 2.30806214 9.72178259 0.96690119 12.015625 -0.5859375 C14.203125 -0.2734375 14.203125 -0.2734375 16.015625 0.4140625 C19.16421938 16.52249623 19.16421938 16.52249623 18.015625 23.4140625 C17.025625 24.0740625 16.035625 24.7340625 15.015625 25.4140625 C14.355625 25.0840625 13.695625 24.7540625 13.015625 24.4140625 C12.6015625 22.12890625 12.6015625 22.12890625 12.390625 19.3515625 C12.31585938 18.43246094 12.24109375 17.51335937 12.1640625 16.56640625 C12.11507812 15.85613281 12.06609375 15.14585937 12.015625 14.4140625 C11.77328125 15.05214844 11.5309375 15.69023437 11.28125 16.34765625 C10.94609375 17.17394531 10.6109375 18.00023437 10.265625 18.8515625 C9.94078125 19.67527344 9.6159375 20.49898437 9.28125 21.34765625 C8.015625 23.4140625 8.015625 23.4140625 4.015625 24.4140625 C2.695625 21.4440625 1.375625 18.4740625 0.015625 15.4140625 C-0.12875 16.7134375 -0.273125 18.0128125 -0.421875 19.3515625 C-0.859375 23.2890625 -0.859375 23.2890625 -1.984375 24.4140625 C-3.65054615 24.45470082 -5.31825595 24.4567835 -6.984375 24.4140625 C-6.86982696 21.53830382 -6.7430903 18.66394138 -6.609375 15.7890625 C-6.5784375 14.98082031 -6.5475 14.17257813 -6.515625 13.33984375 C-6.29065873 8.72803517 -5.86571215 4.70459399 -3.984375 0.4140625 C-1.984375 -0.5859375 -1.984375 -0.5859375 0 0 Z " fill="#545454" transform="translate(73.984375,131.5859375)"/>
<path d="M0 0 C4.03082 1.612328 6.75944137 4.46234596 9.75 7.5 C10.25660156 7.99886719 10.76320313 8.49773437 11.28515625 9.01171875 C15 12.74658861 15 12.74658861 15 15 C13.42578125 16.55078125 13.42578125 16.55078125 11.3125 18.3125 C8.04699036 21.08499308 4.98084015 23.92600859 2 27 C-1.65141356 25.4744094 -3.90118112 23.27519091 -6.625 20.4375 C-9.51070681 17.30957946 -9.51070681 17.30957946 -13 15 C-11.38989473 10.92623969 -8.46177729 8.23492931 -5.375 5.25 C-4.859375 4.74339844 -4.34375 4.23679687 -3.8125 3.71484375 C-2.54616661 2.47196098 -1.2736856 1.23534724 0 0 Z " fill="#F5821E" transform="translate(84,67)"/>
<path d="M0 0 C2 2 2 2 2 5 C-1.81756824 6.37432457 -5.07255329 5.67975039 -9 5 C-9 5.99 -9 6.98 -9 8 C-7.96939453 8.16435547 -7.96939453 8.16435547 -6.91796875 8.33203125 C-6.01691406 8.49058594 -5.11585937 8.64914063 -4.1875 8.8125 C-3.29417969 8.96332031 -2.40085937 9.11414063 -1.48046875 9.26953125 C1.22745933 10.06698409 2.31742918 10.76201745 4 13 C4.5 15.875 4.5 15.875 4 19 C1.40774973 22.53488673 -0.25120439 23.79942975 -4.5 24.9375 C-8.02460064 25.0004393 -9.9310441 24.66600463 -13 23 C-13.66 22.34 -14.32 21.68 -15 21 C-15 19.68 -15 18.36 -15 17 C-13.68 16.67 -12.36 16.34 -11 16 C-10.67 16.99 -10.34 17.98 -10 19 C-7.6568787 18.74438677 -5.32156597 18.40729228 -3 18 C-2.67 17.34 -2.34 16.68 -2 16 C-2.68707031 15.74605469 -3.37414063 15.49210937 -4.08203125 15.23046875 C-4.98308594 14.88628906 -5.88414063 14.54210937 -6.8125 14.1875 C-7.70582031 13.85105469 -8.59914063 13.51460937 -9.51953125 13.16796875 C-11.95752449 12.02000028 -13.38227676 11.14078709 -15 9 C-14.92720489 5.50583469 -14.69084887 3.69084887 -12.1875 1.1875 C-7.81614643 -1.18552051 -4.8728952 -1.16525755 0 0 Z " fill="#545454" transform="translate(26,132)"/>
<path d="M0 0 C1.45599609 0.00966797 1.45599609 0.00966797 2.94140625 0.01953125 C5.4375 0.1875 5.4375 0.1875 7.4375 1.1875 C7.1075 2.5075 6.7775 3.8275 6.4375 5.1875 C1.9825 5.6825 1.9825 5.6825 -2.5625 6.1875 C-2.8925 7.5075 -3.2225 8.8275 -3.5625 10.1875 C-2.28375 10.001875 -1.005 9.81625 0.3125 9.625 C4.1875 9.0625 4.1875 9.0625 6.4375 10.1875 C6.1075 11.5075 5.7775 12.8275 5.4375 14.1875 C0.9825 14.6825 0.9825 14.6825 -3.5625 15.1875 C-3.5625 16.8375 -3.5625 18.4875 -3.5625 20.1875 C0.0675 20.1875 3.6975 20.1875 7.4375 20.1875 C7.1075 21.8375 6.7775 23.4875 6.4375 25.1875 C4.8784022 25.43877207 3.31485984 25.66254458 1.75 25.875 C0.87988281 26.00261719 0.00976562 26.13023437 -0.88671875 26.26171875 C-4.53530548 26.16051707 -5.93908787 25.78761362 -8.5625 23.1875 C-9.27357924 19.65734455 -9.16765703 16.2122887 -9.0625 12.625 C-9.06507812 11.65369141 -9.06765625 10.68238281 -9.0703125 9.68164062 C-8.99641769 4.36490906 -8.99641769 4.36490906 -8.5625 2.1875 C-5.18127827 -0.06664782 -3.9560272 -0.05794447 0 0 Z " fill="#545454" transform="translate(58.5625,130.8125)"/>
<path d="M0 0 C5.27566088 0.06851508 5.27566088 0.06851508 8.375 2.375 C10.05553504 6.21622296 10.64251804 9.25596565 9.6875 13.375 C7.5625 16.375 7.5625 16.375 4.6875 18.375 C1.375 18.6875 1.375 18.6875 -1.3125 18.375 C-1.3125 20.685 -1.3125 22.995 -1.3125 25.375 C-3.25 25.9375 -3.25 25.9375 -5.3125 26.375 C-7.02817792 24.65932208 -6.44265825 22.40127265 -6.4453125 20.0625 C-6.44660156 18.98742187 -6.44789062 17.91234375 -6.44921875 16.8046875 C-6.44341797 15.10699219 -6.44341797 15.10699219 -6.4375 13.375 C-6.44136719 12.24320313 -6.44523437 11.11140625 -6.44921875 9.9453125 C-6.44792969 8.87023437 -6.44664063 7.79515625 -6.4453125 6.6875 C-6.44418457 5.69363281 -6.44305664 4.69976562 -6.44189453 3.67578125 C-6.20034775 -0.61919401 -3.79333 0.13063123 0 0 Z M-0.3125 5.375 C-0.6425 7.685 -0.9725 9.995 -1.3125 12.375 C1.1625 12.87 1.1625 12.87 3.6875 13.375 C4.70290112 9.27276415 4.70290112 9.27276415 3.6875 5.375 C2.3675 5.375 1.0475 5.375 -0.3125 5.375 Z " fill="#545454" transform="translate(100.3125,137.625)"/>
<path d="M0 0 C2.62168448 2.46534549 2.98523948 3.82602263 3.29296875 7.453125 C3.25816406 8.70609375 3.22335938 9.9590625 3.1875 11.25 C3.16042969 12.51328125 3.13335937 13.7765625 3.10546875 15.078125 C3.07066406 16.04234375 3.03585938 17.0065625 3 18 C2.01 18.33 1.02 18.66 0 19 C-0.66 18.67 -1.32 18.34 -2 18 C-2.763125 18.20625 -3.52625 18.4125 -4.3125 18.625 C-7 19 -7 19 -9.8125 18.0625 C-12 16 -12 16 -12.3125 14.12109375 C-12.3125 12.05942344 -12.18621005 10.05244855 -12 8 C-12 7.01 -12 6.02 -12 5 C-11.68448789 2.39702512 -11.43944549 1.35493674 -9.375 -0.3125 C-5.92359234 -1.31159169 -3.45741245 -0.88006862 0 0 Z M-7 4 C-3 5 -3 5 -3 5 Z M-7 10 C-7 11.32 -7 12.64 -7 14 C-5.01508358 13.73323796 -5.01508358 13.73323796 -3 13 C-2.67 12.01 -2.34 11.02 -2 10 C-3.65 10 -5.3 10 -7 10 Z " fill="#545454" transform="translate(166,138)"/>
<path d="M0 0 C3.65141356 1.5255906 5.90118112 3.72480909 8.625 6.5625 C11.51070681 9.69042054 11.51070681 9.69042054 15 12 C15 12.66 15 13.32 15 14 C5.76 14.33 -3.48 14.66 -13 15 C-10.96986589 10.93973179 -8.57604446 8.34542624 -5.375 5.25 C-4.859375 4.74339844 -4.34375 4.23679687 -3.8125 3.71484375 C-2.54616661 2.47196098 -1.2736856 1.23534724 0 0 Z " fill="#2A3690" transform="translate(53,67)"/>
<path d="M0 0 C0 3 0 3 -2.625 5.91796875 C-3.74249406 7.01550756 -4.86785643 8.10507895 -6 9.1875 C-6.57234375 9.74630859 -7.1446875 10.30511719 -7.734375 10.88085938 C-9.14962788 12.26073093 -10.57397155 13.63126734 -12 15 C-15.65141356 13.4744094 -17.90118112 11.27519091 -20.625 8.4375 C-23.51070681 5.30957946 -23.51070681 5.30957946 -27 3 C-27 2.34 -27 1.68 -27 1 C-18.09 0.67 -9.18 0.34 0 0 Z " fill="#11B0F1" transform="translate(83,64)"/>
<path d="M0 0 C-0.875 3.875 -0.875 3.875 -2 5 C-3.98 5 -5.96 5 -8 5 C-7.67 10.94 -7.34 16.88 -7 23 C-8.98 23.99 -8.98 23.99 -11 25 C-13 23 -13 23 -13.22705078 21.12060547 C-13.21657715 20.37697754 -13.20610352 19.63334961 -13.1953125 18.8671875 C-13.18886719 18.06152344 -13.18242188 17.25585938 -13.17578125 16.42578125 C-13.15902344 15.58402344 -13.14226563 14.74226562 -13.125 13.875 C-13.11597656 13.02550781 -13.10695313 12.17601562 -13.09765625 11.30078125 C-13.07405647 9.20040116 -13.03818483 7.10016556 -13 5 C-15.31 5 -17.62 5 -20 5 C-20 3.68 -20 2.36 -20 1 C-17.24728664 -0.37635668 -14.75174013 -0.38208176 -11.6875 -0.625 C-10.55699219 -0.72039062 -9.42648438 -0.81578125 -8.26171875 -0.9140625 C-5.28826448 -0.99240501 -2.87078546 -0.72173593 0 0 Z " fill="#545454" transform="translate(49,132)"/>
<path d="M0 0 C0.99 0.33 1.98 0.66 3 1 C3.08074203 3.62561109 3.1403623 6.24875676 3.1875 8.875 C3.22520508 9.99455078 3.22520508 9.99455078 3.26367188 11.13671875 C3.29296875 13.3046875 3.29296875 13.3046875 3 17 C2.01 17.66 1.02 18.32 0 19 C-0.66 18.67 -1.32 18.34 -2 18 C-3.11025145 12.34781082 -3.41950376 6.64098449 -2 1 C-1.34 0.67 -0.68 0.34 0 0 Z " fill="#545454" transform="translate(149,138)"/>
<path d="M0 0 C1.67542976 0.28604898 3.34385343 0.61781233 5 1 C4.67 2.65 4.34 4.3 4 6 C2.35 6 0.7 6 -1 6 C-1.042721 4.33388095 -1.04063832 2.66617115 -1 1 C-0.67 0.67 -0.34 0.34 0 0 Z " fill="#545454" transform="translate(148,131)"/>
</svg>
